{"title":"Sausage.Party.2016.HDCam.HQ-Mic.Xvid.AC3.UnKnOwN.Hive-CM8","uid":15596609,"size":1390700560,"categoryP":"video","categoryS":"movies","magnet":"?xt=urn:btih:b13e607651780f95631822fb24adaa37fb19d555&amp;dn=Sausage.Party.2016.HDCam.HQ-Mic.Xvid.AC3.UnKnOwN.Hive-CM8&amp;tr=udp%3A%2F%2Ftracker.leechers-paradise.org%3A6969&amp;tr=udp%3A%2F%2Fzer0day.ch%3A1337&amp;tr=udp%3A%2F%2Fopen.demonii.com%3A1337&amp;tr=udp%3A%2F%2Ftracker.coppersurfer.tk%3A6969&amp;tr=udp%3A%2F%2Fexodus.desync.com%3A6969","seeders":42,"leechers":4,"uploader":".BONE.","files":1,"time":1471576406,"description":"Sausage.Party.2016.HDCam.HQ-Mic.Xvid.AC3.UnKnOwN.Hive-CM8.nfo \nhttp://i.imgur.com/3dgRHuk.jpg\r\n\r\nSausage.Party.2016.HDCam.HQ-Mic.Xvid.AC3.UnKnOwN.Hive-CM8\r\n\r\nThx Hive\r\n\r\nCM8 Doing It Right The First Time\r\n\r\nSources:\r\n\r\nVideo: OWN 1080P HDCAM MaTiNE\r\nAudio: OWN English HQ Mic MaTiNE\r\nthx\r\n\r\nNotes:\r\nHave the pleasure to work with 2 Groups we know best MaTiNe and UnKnOwN\r\nand we made a First exclusive UnKnOwN-Hive-CM8 Comborelease for the public.\r\nOur chosen VIPS had this a week earlier, maybe you like to be one of them too!\r\nMany more are coming!!!\r\nNow we decided to free it, so that everyone can enjoy a Quality release too.\r\n\r\nEncode:\r\nCam was very nice needed fixing ar and perspective\r\nbrightness,contrast and sharpness were already perfect nothing done here.\r\nAudio was already nice,almost sounds like line, tweaked and lipsynced to video.\r\ngot very nice\r\nenjoy\r\n\r\nVideo: 720x256 @bitrate 2000 2pass\r\nAudio: English HQ Mic AC3 2.0\r\nSample: yes included\r\n \nhttp://www.imdb.com/title/tt1700841/\r\n\r\nScreens \nhttp://i.imgur.com/njzinFS.png \nhttp://i.imgur.com/GbCCFcv.png \nhttp://i.imgur.com/NP6imOs.png \nhttp://i.imgur.com/x7VtOgt.png \nhttp://i.imgur.com/utOg9z0.png \nhttp://i.imgur.com/ZHvIcWc.png \nhttp://i.imgur.com/ke2PRVK.png \nhttp://i.imgur.com/990S6pX.png\r\n\r\nPlot\r\n\r\nA sausage strives to discover the truth about his existence.\r\n\r\nCast overview, first billed only:\r\n\r\nAlistair Abell                ...        Mariachi Salsa / Gefilte Fish (voice)\r\nIris Apatow                ...        Berry Good Candies / Grape #3 / Coconut Milk (voice)\r\nSugar Lyn Beard                ...        Baby Carrot / Cookies (voice)\r\nMichael Cera                ...        Barry (voice)\r\nIan James Corlett        ...        Apple / Tickilish Licorice / Relish / Bag of Dog Food (voice)\r\nMichael Daingerfield        ...        Chunk Munchers Cereal / Light Bulb / Indian Chutney (voice)\r\nBrian Dobson                ...        Italian Tomato / Lettuce (voice)\r\nMichael Dobson                ...        Queso (voice)\r\nJames Franco                ...        Druggie (voice)\r\nBill Hader                ...        Firewater / Tequila / El Guaco (voice)\r\nIan Hanlin                ...        Beet (voice)\r\nSalma Hayek                ...        Teresa (voice)\r\nMaryke Hendrikse        ...        Popped Cherry Mixer / Plum #1 / Loretta Bun / Frozen Fruitz (voice)\r\nJonah Hill                ...        Carl (voice)\r\nAnders Holm                 ...        Troy (voice)\r\n\r\nGeneral\r\nComplete name                  : Sausage.Party.2016.HDCam.HQ-Mic.Xvid.AC3.UnKnOwN.Hive-CM8.avi\r\nFormat                         : AVI\r\nFormat/Info                    : Audio Video Interleave\r\nFile size                      : 1.30 GiB\r\nDuration                       : 1h 21mn\r\nOverall bit rate               : 2 267 Kbps\r\nWriting application            : Nandub v1.0rc2\r\nWriting library                : Nandub build 1853/release\r\n\r\nVideo\r\nID                             : 0\r\nFormat                         : MPEG-4 Visual\r\nFormat profile                 : Advanced   \r\nFormat settings, BVOP          : 2\r\nFormat settings, QPel          : Yes\r\nFormat settings, GMC           : No warppoints\r\nFormat settings, Matrix        : Default (H.263)\r\nMuxing mode                    : Packed bitstream\r\nCodec ID                       : XVID\r\nCodec ID/Hint                  : XviD\r\nDuration                       : 1h 21mn\r\nBit rate                       : 1 999 Kbps\r\nWidth                          : 720 pixels\r\nHeight                         : 256 pixels\r\nDisplay aspect ratio           : 2.813\r\nFrame rate                     : 29.970 fps\r\nColor space                    : YUV\r\nChroma subsampling             : 4:2:0\r\nBit depth                      : 8 bits\r\nScan type                      : Progressive\r\nCompression mode               : Lossy\r\nBits/(Pixel*Frame)             : 0.362\r\nStream size                    : 1.14 GiB (88%)\r\nWriting library                : XviD 1.2.1 (UTC 2008-12-04)\r\n\r\nAudio\r\nID                             : 1\r\nFormat                         : AC-3\r\nFormat/Info                    : Audio Coding 3\r\nMode extension                 : CM (complete main)\r\nFormat settings, Endianness    : Big\r\nCodec ID                       : 2000\r\nDuration                       : 1h 21mn\r\nBit rate mode                  : Constant\r\nBit rate                       : 256 Kbps\r\nChannel(s)                     : 2 channels\r\nChannel positions              : Front: L R\r\nSampling rate                  : 48.0 KHz\r\nBit depth                      : 16 bits\r\nCompression mode               : Lossy\r\nStream size                    : 150 MiB (11%)\r\nAlignment                      : Split accross interleaves\r\nInterleave, duration           : 33 ms (1.00 video frame)\r\nInterleave, preload duration   : 500 ms\r\n\r\nStill looking for guys who can get 1080p cams and line, no encoders plz\r\nmsg us   \r\n\r\nLOOKING FOR ANYTHING YOU WANT TO LOOK AND SOUND BETTER\r\n\r\nCOME FIND US WE DONT BITE","torrent":{"xt":"urn:btih:b13e607651780f95631822fb24adaa37fb19d555","amp;dn":"Sausage.Party.2016.HDCam.HQ-Mic.Xvid.AC3.UnKnOwN.Hive-CM8","amp;tr":["udp%3A%2F%2Ftracker.leechers-paradise.org%3A6969","udp%3A%2F%2Fzer0day.ch%3A1337","udp%3A%2F%2Fopen.demonii.com%3A1337","udp%3A%2F%2Ftracker.coppersurfer.tk%3A6969","udp%3A%2F%2Fexodus.desync.com%3A6969"],"infoHash":"b13e607651780f95631822fb24adaa37fb19d555","infoHashBuffer":{"type":"Buffer","data":[177,62,96,118,81,120,15,149,99,24,34,251,36,173,170,55,251,25,213,85]},"announce":[],"urlList":[]}}